# xmcd
#
# Track frame offsets:
#	150
#	13540
#	27555
#	40255
#	52910
#	67862
#	80077
#	93312
#	106280
#	120542
#	133685
#	145722
#	160537
#	178360
#	193625
#	208510
#	223132
#	237060
#	249034
#	264145
#	278307
#
# Disc length: 3847 seconds
#
# Revision: 0
# Processed by: cddbd v1.4PL0 Copyright (c) Steve Scherf et al.
# Submitted via: dBpowerAMP V4.0
#
DISCID=140f0515
DTITLE=Rodgers/Miller/Evans - 1928-36-Blue Yodelers
DYEAR=1900
DGENRE=General Country
TTITLE0=My Carolina Sunshine Girl
TTITLE1=Blue Yodel No.4
TTITLE2=Waiting For A Train
TTITLE3=My Blue-Eyed Jane
TTITLE4=Jimmie'S Mean Mama Blues
TTITLE5=Blue Yodel No. 9
TTITLE6=My Good Gal'S Gone Blues
TTITLE7=My Good Gal'S Gone Blues
TTITLE8=How Long Is That Train Been Gone?
TTITLE9=Georgia'S Always On My Mind
TTITLE10=Syncopated Yodelin' Man
TTITLE11=Jazbo Dan And His Yodelin' Band
TTITLE12=St. Louis Blues/Weary Yodelin' Blues
TTITLE13=I Lost My Gal From Memphis
TTITLE14=I'm Tickled Pink With A Blue-Eyed Baby
TTITLE15=It'S An Old Spanish Custom In The Moonlight
TTITLE16=Roll On Mississippi Roll On
TTITLE17=I Ain'T Got Nobody
TTITLE18=The Gypsy
TTITLE19=Anytime
TTITLE20=Right Or Wrong
EXTD=william hale
EXTT0=
EXTT1=
EXTT2=
EXTT3=
EXTT4=
EXTT5=
EXTT6=
EXTT7=
EXTT8=
EXTT9=
EXTT10=
EXTT11=
EXTT12=
EXTT13=
EXTT14=
EXTT15=
EXTT16=
EXTT17=
EXTT18=
EXTT19=
EXTT20=
PLAYORDER=
